<mxfile host="app.diagrams.net" modified="2021-07-17T20:24:30.954Z" agent="5.0 (X11; Linux x86_64) AppleWebKit/537.36 (KHTML, like Gecko) Chrome/93.0.4558.0 Safari/537.36 Edg/93.0.946.1" etag="g0w_ONX2ORXdJcRMzmlF" version="14.9.0" type="github">
  <diagram id="LSlJXwUNCPR8mvigotYO" name="Page-1">
    <mxGraphModel dx="813" dy="437" grid="1" gridSize="10" guides="1" tooltips="1" connect="1" arrows="1" fold="1" page="1" pageScale="1" pageWidth="1169" pageHeight="827" background="#ffffff" math="0" shadow="0">
      <root>
        <mxCell id="0" />
        <mxCell id="1" parent="0" />
        <mxCell id="jVpAKbamQtHqxC_V8vM3-1" value="" style="rounded=0;whiteSpace=wrap;html=1;" vertex="1" parent="1">
          <mxGeometry x="565" y="290" width="350" height="280" as="geometry" />
        </mxCell>
        <mxCell id="jVpAKbamQtHqxC_V8vM3-2" value="Backend" style="text;html=1;strokeColor=none;fillColor=none;align=center;verticalAlign=middle;whiteSpace=wrap;rounded=0;" vertex="1" parent="1">
          <mxGeometry x="565" y="290" width="70" height="20" as="geometry" />
        </mxCell>
        <mxCell id="jVpAKbamQtHqxC_V8vM3-8" value="" style="rounded=0;orthogonalLoop=1;jettySize=auto;html=1;endArrow=halfCircle;endFill=0;entryX=0.5;entryY=0.5;entryDx=0;entryDy=0;endSize=6;strokeWidth=1;exitX=0.5;exitY=1;exitDx=0;exitDy=0;" edge="1" target="jVpAKbamQtHqxC_V8vM3-9" parent="1">
          <mxGeometry relative="1" as="geometry">
            <mxPoint x="739.9999999999999" y="290" as="sourcePoint" />
          </mxGeometry>
        </mxCell>
        <mxCell id="jVpAKbamQtHqxC_V8vM3-9" value="" style="ellipse;whiteSpace=wrap;html=1;fontFamily=Helvetica;fontSize=12;fontColor=#000000;align=center;strokeColor=#000000;fillColor=#ffffff;points=[];aspect=fixed;resizable=0;" vertex="1" parent="1">
          <mxGeometry x="735" y="320" width="10" height="10" as="geometry" />
        </mxCell>
        <mxCell id="jVpAKbamQtHqxC_V8vM3-18" style="edgeStyle=orthogonalEdgeStyle;rounded=0;orthogonalLoop=1;jettySize=auto;html=1;exitX=0.5;exitY=1;exitDx=0;exitDy=0;" edge="1" parent="1" source="jVpAKbamQtHqxC_V8vM3-13" target="jVpAKbamQtHqxC_V8vM3-16">
          <mxGeometry relative="1" as="geometry" />
        </mxCell>
        <mxCell id="jVpAKbamQtHqxC_V8vM3-13" value="&lt;span&gt;Controllers&lt;/span&gt;" style="rounded=0;whiteSpace=wrap;html=1;fillColor=#d5e8d4;strokeColor=#82b366;" vertex="1" parent="1">
          <mxGeometry x="675" y="340" width="130" height="40" as="geometry" />
        </mxCell>
        <mxCell id="jVpAKbamQtHqxC_V8vM3-26" style="edgeStyle=orthogonalEdgeStyle;rounded=0;orthogonalLoop=1;jettySize=auto;html=1;exitX=0.194;exitY=1.012;exitDx=0;exitDy=0;exitPerimeter=0;" edge="1" parent="1" source="jVpAKbamQtHqxC_V8vM3-16" target="jVpAKbamQtHqxC_V8vM3-25">
          <mxGeometry relative="1" as="geometry">
            <Array as="points" />
          </mxGeometry>
        </mxCell>
        <mxCell id="jVpAKbamQtHqxC_V8vM3-30" style="edgeStyle=orthogonalEdgeStyle;rounded=0;orthogonalLoop=1;jettySize=auto;html=1;exitX=0.75;exitY=1;exitDx=0;exitDy=0;entryX=0.446;entryY=0.034;entryDx=0;entryDy=0;entryPerimeter=0;" edge="1" parent="1" source="jVpAKbamQtHqxC_V8vM3-16" target="jVpAKbamQtHqxC_V8vM3-28">
          <mxGeometry relative="1" as="geometry" />
        </mxCell>
        <mxCell id="jVpAKbamQtHqxC_V8vM3-16" value="&lt;span&gt;Services&lt;/span&gt;" style="rounded=0;whiteSpace=wrap;html=1;fillColor=#e1d5e7;strokeColor=#9673a6;" vertex="1" parent="1">
          <mxGeometry x="675" y="400" width="130" height="50" as="geometry" />
        </mxCell>
        <mxCell id="jVpAKbamQtHqxC_V8vM3-20" value="&lt;span&gt;API REST&lt;/span&gt;" style="rounded=0;whiteSpace=wrap;html=1;" vertex="1" parent="1">
          <mxGeometry x="692.5" y="270" width="95" height="20" as="geometry" />
        </mxCell>
        <mxCell id="jVpAKbamQtHqxC_V8vM3-23" value="" style="endArrow=none;html=1;exitX=0.5;exitY=0;exitDx=0;exitDy=0;" edge="1" parent="1" source="jVpAKbamQtHqxC_V8vM3-13">
          <mxGeometry width="50" height="50" relative="1" as="geometry">
            <mxPoint x="825" y="400" as="sourcePoint" />
            <mxPoint x="740" y="330" as="targetPoint" />
          </mxGeometry>
        </mxCell>
        <mxCell id="jVpAKbamQtHqxC_V8vM3-24" value="Postgre&lt;br&gt;SQL" style="shape=cylinder3;whiteSpace=wrap;html=1;boundedLbl=1;backgroundOutline=1;size=15;" vertex="1" parent="1">
          <mxGeometry x="835" y="480" width="60" height="70" as="geometry" />
        </mxCell>
        <mxCell id="jVpAKbamQtHqxC_V8vM3-25" value="&lt;span&gt;Entities&lt;/span&gt;" style="rounded=0;whiteSpace=wrap;html=1;" vertex="1" parent="1">
          <mxGeometry x="675" y="490" width="50" height="50" as="geometry" />
        </mxCell>
        <mxCell id="jVpAKbamQtHqxC_V8vM3-29" style="edgeStyle=orthogonalEdgeStyle;rounded=0;orthogonalLoop=1;jettySize=auto;html=1;exitX=1;exitY=0.5;exitDx=0;exitDy=0;entryX=0;entryY=0.5;entryDx=0;entryDy=0;entryPerimeter=0;" edge="1" parent="1" source="jVpAKbamQtHqxC_V8vM3-28" target="jVpAKbamQtHqxC_V8vM3-24">
          <mxGeometry relative="1" as="geometry" />
        </mxCell>
        <mxCell id="jVpAKbamQtHqxC_V8vM3-28" value="DAOs" style="rounded=0;whiteSpace=wrap;html=1;fillColor=#f8cecc;strokeColor=#b85450;" vertex="1" parent="1">
          <mxGeometry x="750" y="490" width="50" height="50" as="geometry" />
        </mxCell>
        <mxCell id="jVpAKbamQtHqxC_V8vM3-31" value="" style="rounded=0;whiteSpace=wrap;html=1;" vertex="1" parent="1">
          <mxGeometry x="230" y="360" width="260" height="170" as="geometry" />
        </mxCell>
        <mxCell id="jVpAKbamQtHqxC_V8vM3-32" value="Frontend" style="text;html=1;strokeColor=none;fillColor=none;align=center;verticalAlign=middle;whiteSpace=wrap;rounded=0;" vertex="1" parent="1">
          <mxGeometry x="230" y="360" width="70" height="20" as="geometry" />
        </mxCell>
        <mxCell id="jVpAKbamQtHqxC_V8vM3-33" value="&lt;span&gt;Models&lt;/span&gt;" style="rounded=0;whiteSpace=wrap;html=1;fillColor=#ffe6cc;strokeColor=#d79b00;" vertex="1" parent="1">
          <mxGeometry x="260" y="440" width="80" height="40" as="geometry" />
        </mxCell>
        <mxCell id="jVpAKbamQtHqxC_V8vM3-34" value="&lt;span&gt;Components&lt;/span&gt;" style="rounded=0;whiteSpace=wrap;html=1;fillColor=#ffe6cc;strokeColor=#d79b00;" vertex="1" parent="1">
          <mxGeometry x="380" y="440" width="80" height="40" as="geometry" />
        </mxCell>
        <mxCell id="jVpAKbamQtHqxC_V8vM3-35" value="&lt;span&gt;HTML&lt;/span&gt;" style="rounded=0;whiteSpace=wrap;html=1;fillColor=#ffe6cc;strokeColor=#d79b00;" vertex="1" parent="1">
          <mxGeometry x="320" y="390" width="80" height="40" as="geometry" />
        </mxCell>
        <mxCell id="jVpAKbamQtHqxC_V8vM3-38" style="edgeStyle=orthogonalEdgeStyle;rounded=0;orthogonalLoop=1;jettySize=auto;html=1;exitX=0.5;exitY=1;exitDx=0;exitDy=0;" edge="1" parent="1" source="jVpAKbamQtHqxC_V8vM3-37">
          <mxGeometry relative="1" as="geometry">
            <mxPoint x="740" y="269" as="targetPoint" />
            <Array as="points">
              <mxPoint x="360" y="560" />
              <mxPoint x="550" y="560" />
              <mxPoint x="550" y="250" />
              <mxPoint x="740" y="250" />
            </Array>
          </mxGeometry>
        </mxCell>
        <mxCell id="jVpAKbamQtHqxC_V8vM3-40" value="HTTP request" style="edgeLabel;html=1;align=center;verticalAlign=middle;resizable=0;points=[];" vertex="1" connectable="0" parent="jVpAKbamQtHqxC_V8vM3-38">
          <mxGeometry x="-0.612" relative="1" as="geometry">
            <mxPoint y="10" as="offset" />
          </mxGeometry>
        </mxCell>
        <mxCell id="jVpAKbamQtHqxC_V8vM3-37" value="" style="rounded=0;whiteSpace=wrap;html=1;fillColor=#ffe6cc;strokeColor=#d79b00;" vertex="1" parent="1">
          <mxGeometry x="260" y="500" width="200" height="10" as="geometry" />
        </mxCell>
        <mxCell id="jVpAKbamQtHqxC_V8vM3-41" style="edgeStyle=orthogonalEdgeStyle;rounded=0;orthogonalLoop=1;jettySize=auto;html=1;entryX=0.569;entryY=0.974;entryDx=0;entryDy=0;entryPerimeter=0;" edge="1" parent="1" target="jVpAKbamQtHqxC_V8vM3-37">
          <mxGeometry relative="1" as="geometry">
            <mxPoint x="750" y="269" as="sourcePoint" />
            <Array as="points">
              <mxPoint x="750" y="240" />
              <mxPoint x="530" y="240" />
              <mxPoint x="530" y="550" />
              <mxPoint x="374" y="550" />
            </Array>
          </mxGeometry>
        </mxCell>
        <mxCell id="jVpAKbamQtHqxC_V8vM3-43" value="HTTP response" style="edgeLabel;html=1;align=center;verticalAlign=middle;resizable=0;points=[];" vertex="1" connectable="0" parent="jVpAKbamQtHqxC_V8vM3-41">
          <mxGeometry x="0.7443" relative="1" as="geometry">
            <mxPoint x="202" y="-320" as="offset" />
          </mxGeometry>
        </mxCell>
      </root>
    </mxGraphModel>
  </diagram>
</mxfile>
